<?xml version="1.0" encoding="UTF-8"?>
<!DOCTYPE svg PUBLIC "-//W3C//DTD SVG 1.1//EN" "http://www.w3.org/Graphics/SVG/1.1/DTD/svg11.dtd">
<svg xmlns="http://www.w3.org/2000/svg" version="1.1" width="163px" height="156px" style="shape-rendering:geometricPrecision; text-rendering:geometricPrecision; image-rendering:optimizeQuality; fill-rule:evenodd; clip-rule:evenodd" xmlns:xlink="http://www.w3.org/1999/xlink">
<g><path style="opacity:0.894" fill="#e9a991" d="M 88.5,31.5 C 82.642,31.1778 76.9753,31.5111 71.5,32.5C 70.1667,32.5 68.8333,32.5 67.5,32.5C 71.2032,30.945 75.2032,30.2783 79.5,30.5C 82.6862,30.502 85.6862,30.8353 88.5,31.5 Z"/></g>
<g><path style="opacity:1" fill="#f6803b" d="M 89.5,33.5 C 91.5,33.5 93.5,33.5 95.5,33.5C 95.5,34.1667 95.5,34.8333 95.5,35.5C 92.5546,37.1611 89.2213,38.3278 85.5,39C 88.3076,39.0186 90.6409,40.0186 92.5,42C 91.4293,42.8518 90.4293,43.6851 89.5,44.5C 86.2613,44.4129 83.2613,45.0795 80.5,46.5C 79.596,45.791 79.2627,44.791 79.5,43.5C 81.6807,43.7163 83.3474,42.883 84.5,41C 84,40.5 83.5,40 83,39.5C 82.9846,37.2086 82.8179,35.0419 82.5,33C 84.8848,32.4436 87.2181,32.6103 89.5,33.5 Z"/></g>
<g><path style="opacity:1" fill="#ecb287" d="M 88.5,31.5 C 91.1522,31.4095 93.4855,32.0762 95.5,33.5C 93.5,33.5 91.5,33.5 89.5,33.5C 89.1667,32.8333 88.8333,32.1667 88.5,31.5 Z"/></g>
<g><path style="opacity:1" fill="#f0b680" d="M 95.5,33.5 C 98.8171,34.8235 102.15,36.1568 105.5,37.5C 109.414,36.0827 113.414,35.0827 117.5,34.5C 116.5,35.1667 115.5,35.8333 114.5,36.5C 110.616,37.7927 106.616,38.4593 102.5,38.5C 101.18,37.0582 99.5138,36.3915 97.5,36.5C 96.8333,36.1667 96.1667,35.8333 95.5,35.5C 95.5,34.8333 95.5,34.1667 95.5,33.5 Z"/></g>
<g><path style="opacity:1" fill="#e58869" d="M 67.5,32.5 C 63.263,35.586 58.5963,37.9194 53.5,39.5C 57.3172,35.5914 61.9838,33.258 67.5,32.5 Z"/></g>
<g><path style="opacity:1" fill="#f2663b" d="M 67.5,32.5 C 68.8333,32.5 70.1667,32.5 71.5,32.5C 69.2314,33.9758 66.8981,35.4758 64.5,37C 67.3791,37.546 70.0458,38.3794 72.5,39.5C 72.6107,40.1174 72.944,40.6174 73.5,41C 69.7745,41.7599 66.1078,41.5932 62.5,40.5C 60.3796,41.4033 60.0462,42.7367 61.5,44.5C 64.8967,45.1719 68.2301,46.0052 71.5,47C 68.0465,47.6284 67.7131,48.7951 70.5,50.5C 65.3426,51.6066 60.6759,53.6066 56.5,56.5C 56.1583,57.3382 55.4916,57.6716 54.5,57.5C 52.0971,57.448 49.7638,57.7814 47.5,58.5C 48.5893,56.8829 50.256,56.0496 52.5,56C 51.572,55.6121 50.9054,54.9454 50.5,54C 51.7073,52.6998 52.3739,51.1998 52.5,49.5C 53.5,49.5 54.5,49.5 55.5,49.5C 54.9885,46.9785 53.9885,44.6451 52.5,42.5C 52.5569,41.391 52.8902,40.391 53.5,39.5C 58.5963,37.9194 63.263,35.586 67.5,32.5 Z"/></g>
<g><path style="opacity:1" fill="#f6ab4f" d="M 127.5,34.5 C 127.821,36.0481 128.821,36.7148 130.5,36.5C 130.915,38.7468 131.582,40.9135 132.5,43C 132.057,44.825 131.723,46.6583 131.5,48.5C 129.805,49.0114 128.139,49.6781 126.5,50.5C 127.872,52.6198 127.205,53.6198 124.5,53.5C 124.5,55.1667 124.5,56.8333 124.5,58.5C 122.12,61.8805 119.12,64.5472 115.5,66.5C 115.64,64.8762 114.973,63.7096 113.5,63C 115.134,62.5065 116.801,62.3398 118.5,62.5C 118.326,60.139 117.993,57.8056 117.5,55.5C 118.675,55.719 119.675,55.3857 120.5,54.5C 118.257,53.5258 115.924,53.1924 113.5,53.5C 113.5,51.5 113.5,49.5 113.5,47.5C 114.827,48.8001 116.16,50.1335 117.5,51.5C 120.208,49.7339 122.208,47.4006 123.5,44.5C 124.404,43.791 124.737,42.791 124.5,41.5C 122.05,41.298 119.717,41.6314 117.5,42.5C 116.862,40.54 116.862,38.7067 117.5,37C 116.552,36.5172 115.552,36.3505 114.5,36.5C 115.5,35.8333 116.5,35.1667 117.5,34.5C 120.936,33.2185 124.269,33.2185 127.5,34.5 Z"/></g>
<g><path style="opacity:1" fill="#f3773c" d="M 88.5,31.5 C 88.8333,32.1667 89.1667,32.8333 89.5,33.5C 87.2181,32.6103 84.8848,32.4436 82.5,33C 82.8179,35.0419 82.9846,37.2086 83,39.5C 83.5,40 84,40.5 84.5,41C 83.3474,42.883 81.6807,43.7163 79.5,43.5C 79.2627,44.791 79.596,45.791 80.5,46.5C 79.6935,47.7281 78.6935,48.7281 77.5,49.5C 76.5,49.5 75.5,49.5 74.5,49.5C 78.6033,46.799 77.9367,45.1324 72.5,44.5C 73.7757,43.3554 75.109,43.3554 76.5,44.5C 77.5,44.1667 78.1667,43.5 78.5,42.5C 76.9288,40.585 74.9288,39.585 72.5,39.5C 70.0458,38.3794 67.3791,37.546 64.5,37C 66.8981,35.4758 69.2314,33.9758 71.5,32.5C 76.9753,31.5111 82.642,31.1778 88.5,31.5 Z"/></g>
<g><path style="opacity:0.953" fill="#f2c07c" d="M 127.5,34.5 C 130.292,34.4521 132.125,35.7854 133,38.5C 133.667,41.1667 133.667,43.8333 133,46.5C 132.722,47.4158 132.222,48.0825 131.5,48.5C 131.723,46.6583 132.057,44.825 132.5,43C 131.582,40.9135 130.915,38.7468 130.5,36.5C 128.821,36.7148 127.821,36.0481 127.5,34.5 Z"/></g>
<g><path style="opacity:1" fill="#f7913d" d="M 97.5,36.5 C 99.5138,36.3915 101.18,37.0582 102.5,38.5C 103.677,40.0315 105.011,41.5315 106.5,43C 105.833,43.3333 105.167,43.6667 104.5,44C 106.286,44.1962 107.619,45.0295 108.5,46.5C 107.714,51.7813 107.214,57.1146 107,62.5C 106.5,63.6667 105.667,64.5 104.5,65C 105.308,65.3076 105.975,65.8076 106.5,66.5C 105.066,67.2298 103.9,68.2298 103,69.5C 102.583,68.244 101.75,67.5774 100.5,67.5C 101.584,61.217 101.751,54.8837 101,48.5C 98.8424,47.9498 98.3424,46.9498 99.5,45.5C 99.6107,44.8826 99.944,44.3826 100.5,44C 90.2149,45.28 89.8815,43.9467 99.5,40C 98.1772,39.1841 97.5106,38.0174 97.5,36.5 Z"/></g>
<g><path style="opacity:1" fill="#f2b978" d="M 123.5,44.5 C 123.631,43.7611 123.464,43.0944 123,42.5C 119.951,43.6101 116.784,44.2767 113.5,44.5C 113.5,45.5 113.5,46.5 113.5,47.5C 112.188,46.8549 111.188,45.8549 110.5,44.5C 112.707,43.3652 115.04,42.6985 117.5,42.5C 119.717,41.6314 122.05,41.298 124.5,41.5C 124.737,42.791 124.404,43.791 123.5,44.5 Z"/></g>
<g><path style="opacity:1" fill="#f47138" d="M 72.5,39.5 C 74.9288,39.585 76.9288,40.585 78.5,42.5C 78.1667,43.5 77.5,44.1667 76.5,44.5C 75.109,43.3554 73.7757,43.3554 72.5,44.5C 77.9367,45.1324 78.6033,46.799 74.5,49.5C 73.4324,50.4345 72.099,50.7678 70.5,50.5C 67.7131,48.7951 68.0465,47.6284 71.5,47C 68.2301,46.0052 64.8967,45.1719 61.5,44.5C 60.0462,42.7367 60.3796,41.4033 62.5,40.5C 66.1078,41.5932 69.7745,41.7599 73.5,41C 72.944,40.6174 72.6107,40.1174 72.5,39.5 Z"/></g>
<g><path style="opacity:1" fill="#f78c3c" d="M 99.5,45.5 C 98.3424,46.9498 98.8424,47.9498 101,48.5C 101.751,54.8837 101.584,61.217 100.5,67.5C 99.7611,67.369 99.0944,67.5357 98.5,68C 100.001,69.2515 101.668,70.2515 103.5,71C 104.252,71.6708 104.586,72.5041 104.5,73.5C 101.985,73.7691 99.9855,74.7691 98.5,76.5C 97.5,76.5 96.5,76.5 95.5,76.5C 95.7367,68.4715 95.4034,60.4715 94.5,52.5C 94.6922,50.4233 95.1922,48.4233 96,46.5C 97.0113,45.6634 98.1779,45.33 99.5,45.5 Z"/></g>
<g><path style="opacity:1" fill="#f5803c" d="M 89.5,44.5 C 89.5657,57.017 89.5657,69.6837 89.5,82.5C 88.1667,82.1667 86.8333,81.8333 85.5,81.5C 84.5266,81.0133 83.5266,80.5133 82.5,80C 83.1515,75.9152 83.4849,71.7485 83.5,67.5C 83.4626,63.0754 82.7959,58.9087 81.5,55C 82.5,54.6667 83.5,54.3333 84.5,54C 82.1152,53.4436 79.7819,53.6103 77.5,54.5C 77.5,53.8333 77.5,53.1667 77.5,52.5C 83.7421,50.4311 83.7421,49.4311 77.5,49.5C 78.6935,48.7281 79.6935,47.7281 80.5,46.5C 83.2613,45.0795 86.2613,44.4129 89.5,44.5 Z"/></g>
<g><path style="opacity:1" fill="#f6873d" d="M 95.5,35.5 C 96.1667,35.8333 96.8333,36.1667 97.5,36.5C 97.5106,38.0174 98.1772,39.1841 99.5,40C 89.8815,43.9467 90.2149,45.28 100.5,44C 99.944,44.3826 99.6107,44.8826 99.5,45.5C 98.1779,45.33 97.0113,45.6634 96,46.5C 95.1922,48.4233 94.6922,50.4233 94.5,52.5C 95.4034,60.4715 95.7367,68.4715 95.5,76.5C 96.5,76.5 97.5,76.5 98.5,76.5C 98.5,77.1667 98.5,77.8333 98.5,78.5C 98.5,79.1667 98.1667,79.5 97.5,79.5C 95.5,79.5 93.5,79.5 91.5,79.5C 91.7148,81.1788 91.0481,82.1788 89.5,82.5C 89.5657,69.6837 89.5657,57.017 89.5,44.5C 90.4293,43.6851 91.4293,42.8518 92.5,42C 90.6409,40.0186 88.3076,39.0186 85.5,39C 89.2213,38.3278 92.5546,37.1611 95.5,35.5 Z"/></g>
<g><path style="opacity:1" fill="#f79940" d="M 114.5,36.5 C 115.552,36.3505 116.552,36.5172 117.5,37C 116.862,38.7067 116.862,40.54 117.5,42.5C 115.04,42.6985 112.707,43.3652 110.5,44.5C 111.188,45.8549 112.188,46.8549 113.5,47.5C 113.5,49.5 113.5,51.5 113.5,53.5C 115.924,53.1924 118.257,53.5258 120.5,54.5C 119.675,55.3857 118.675,55.719 117.5,55.5C 117.993,57.8056 118.326,60.139 118.5,62.5C 116.801,62.3398 115.134,62.5065 113.5,63C 114.973,63.7096 115.64,64.8762 115.5,66.5C 114.564,67.9744 113.23,68.9744 111.5,69.5C 109.031,70.5686 106.698,71.9019 104.5,73.5C 104.586,72.5041 104.252,71.6708 103.5,71C 101.668,70.2515 100.001,69.2515 98.5,68C 99.0944,67.5357 99.7611,67.369 100.5,67.5C 101.75,67.5774 102.583,68.244 103,69.5C 103.9,68.2298 105.066,67.2298 106.5,66.5C 105.975,65.8076 105.308,65.3076 104.5,65C 105.667,64.5 106.5,63.6667 107,62.5C 107.214,57.1146 107.714,51.7813 108.5,46.5C 107.619,45.0295 106.286,44.1962 104.5,44C 105.167,43.6667 105.833,43.3333 106.5,43C 105.011,41.5315 103.677,40.0315 102.5,38.5C 106.616,38.4593 110.616,37.7927 114.5,36.5 Z"/></g>
<g><path style="opacity:1" fill="#f4bf75" d="M 131.5,48.5 C 129.938,52.3918 127.605,55.7251 124.5,58.5C 124.5,56.8333 124.5,55.1667 124.5,53.5C 127.205,53.6198 127.872,52.6198 126.5,50.5C 128.139,49.6781 129.805,49.0114 131.5,48.5 Z"/></g>
<g><path style="opacity:1" fill="#e67a65" d="M 53.5,39.5 C 52.8902,40.391 52.5569,41.391 52.5,42.5C 51.5326,43.8062 50.1993,44.4729 48.5,44.5C 45.8969,49.4624 43.2302,54.4624 40.5,59.5C 40.6667,60.1667 40.8333,60.8333 41,61.5C 43.0519,60.2071 45.2186,59.2071 47.5,58.5C 49.7638,57.7814 52.0971,57.448 54.5,57.5C 49.6894,60.0698 44.6894,62.4032 39.5,64.5C 38.596,63.791 38.2627,62.791 38.5,61.5C 39.6405,55.5513 42.1405,50.2179 46,45.5C 48.1057,42.8823 50.6057,40.8823 53.5,39.5 Z"/></g>
<g><path style="opacity:1" fill="#f15a38" d="M 52.5,42.5 C 53.9885,44.6451 54.9885,46.9785 55.5,49.5C 54.5,49.5 53.5,49.5 52.5,49.5C 52.3739,51.1998 51.7073,52.6998 50.5,54C 50.9054,54.9454 51.572,55.6121 52.5,56C 50.256,56.0496 48.5893,56.8829 47.5,58.5C 45.2186,59.2071 43.0519,60.2071 41,61.5C 40.8333,60.8333 40.6667,60.1667 40.5,59.5C 43.2302,54.4624 45.8969,49.4624 48.5,44.5C 50.1993,44.4729 51.5326,43.8062 52.5,42.5 Z"/></g>
<g><path style="opacity:1" fill="#ec9f7e" d="M 74.5,49.5 C 75.5,49.5 76.5,49.5 77.5,49.5C 83.7421,49.4311 83.7421,50.4311 77.5,52.5C 76.9032,51.8614 76.0698,51.528 75,51.5C 68.7889,53.0715 62.6222,54.7381 56.5,56.5C 60.6759,53.6066 65.3426,51.6066 70.5,50.5C 72.099,50.7678 73.4324,50.4345 74.5,49.5 Z"/></g>
<g><path style="opacity:1" fill="#f37a3d" d="M 85.5,81.5 C 85.5,82.5 85.5,83.5 85.5,84.5C 84.5,84.5 83.5,84.5 82.5,84.5C 82.5674,85.9587 82.2341,87.2921 81.5,88.5C 81.1583,89.3382 80.4916,89.6716 79.5,89.5C 77.8599,90.3201 76.1932,91.1534 74.5,92C 78.8449,91.9156 83.1783,91.4156 87.5,90.5C 86.0101,92.2798 84.0101,92.9465 81.5,92.5C 80.5084,92.3284 79.8417,92.6618 79.5,93.5C 76.3019,94.0356 73.6353,93.369 71.5,91.5C 72.5,91.1667 73.1667,90.5 73.5,89.5C 75.7182,88.9841 77.7182,87.9841 79.5,86.5C 77.1433,84.6479 74.4767,83.4813 71.5,83C 72.745,82.2086 74.0783,81.7086 75.5,81.5C 76.8182,78.7425 77.4848,75.5758 77.5,72C 77.3333,68.8333 77.1667,65.6667 77,62.5C 76.1667,61.6667 75.3333,60.8333 74.5,60C 75.5822,58.6703 76.2488,57.1703 76.5,55.5C 77.1667,55.5 77.5,55.1667 77.5,54.5C 79.7819,53.6103 82.1152,53.4436 84.5,54C 83.5,54.3333 82.5,54.6667 81.5,55C 82.7959,58.9087 83.4626,63.0754 83.5,67.5C 83.4849,71.7485 83.1515,75.9152 82.5,80C 83.5266,80.5133 84.5266,81.0133 85.5,81.5 Z"/></g>
<g><path style="opacity:1" fill="#e9885e" d="M 77.5,52.5 C 77.5,53.1667 77.5,53.8333 77.5,54.5C 77.5,55.1667 77.1667,55.5 76.5,55.5C 72.9911,56.904 69.6578,58.5707 66.5,60.5C 64.7839,60.6287 63.1172,60.962 61.5,61.5C 66.3162,57.7072 71.6495,54.7072 77.5,52.5 Z"/></g>
<g><path style="opacity:1" fill="#f46e3a" d="M 66.5,60.5 C 67.9516,61.3019 69.6183,61.8019 71.5,62C 71.8333,62.3333 72.1667,62.6667 72.5,63C 71.552,63.4828 70.552,63.6495 69.5,63.5C 69.5,68.5 69.5,73.5 69.5,78.5C 72.216,78.3862 74.216,79.3862 75.5,81.5C 74.0783,81.7086 72.745,82.2086 71.5,83C 74.4767,83.4813 77.1433,84.6479 79.5,86.5C 77.7182,87.9841 75.7182,88.9841 73.5,89.5C 71.357,87.9257 69.0237,86.5923 66.5,85.5C 65.3739,83.2069 64.0406,81.0403 62.5,79C 65.0808,76.5974 65.0808,74.0974 62.5,71.5C 63.2692,68.8853 63.6025,66.2186 63.5,63.5C 62.5,63.5 61.5,63.5 60.5,63.5C 60.8333,62.8333 61.1667,62.1667 61.5,61.5C 63.1172,60.962 64.7839,60.6287 66.5,60.5 Z"/></g>
<g><path style="opacity:1" fill="#f4733a" d="M 76.5,55.5 C 76.2488,57.1703 75.5822,58.6703 74.5,60C 75.3333,60.8333 76.1667,61.6667 77,62.5C 77.1667,65.6667 77.3333,68.8333 77.5,72C 77.4848,75.5758 76.8182,78.7425 75.5,81.5C 74.216,79.3862 72.216,78.3862 69.5,78.5C 69.5,73.5 69.5,68.5 69.5,63.5C 70.552,63.6495 71.552,63.4828 72.5,63C 72.1667,62.6667 71.8333,62.3333 71.5,62C 69.6183,61.8019 67.9516,61.3019 66.5,60.5C 69.6578,58.5707 72.9911,56.904 76.5,55.5 Z"/></g>
<g><path style="opacity:0.847" fill="#f0b495" d="M 61.5,61.5 C 61.1667,62.1667 60.8333,62.8333 60.5,63.5C 59.8333,63.5 59.1667,63.5 58.5,63.5C 58.9731,62.0937 59.9731,61.427 61.5,61.5 Z"/></g>
<g><path style="opacity:0.855" fill="#e4aca9" d="M 38.5,61.5 C 38.2627,62.791 38.596,63.791 39.5,64.5C 38.828,65.2674 37.9947,65.9341 37,66.5C 36.7973,64.6092 37.2973,62.9425 38.5,61.5 Z"/></g>
<g><path style="opacity:1" fill="#e4876f" d="M 52.5,67.5 C 51.8902,68.391 51.5569,69.391 51.5,70.5C 50.0048,70.9887 48.6715,71.6554 47.5,72.5C 46.609,73.1098 45.609,73.4431 44.5,73.5C 46.4426,70.5293 49.1092,68.5293 52.5,67.5 Z"/></g>
<g><path style="opacity:1" fill="#f1b07c" d="M 111.5,69.5 C 107.698,73.2371 103.365,76.2371 98.5,78.5C 98.5,77.8333 98.5,77.1667 98.5,76.5C 99.9855,74.7691 101.985,73.7691 104.5,73.5C 106.698,71.9019 109.031,70.5686 111.5,69.5 Z"/></g>
<g><path style="opacity:1" fill="#e9887c" d="M 44.5,73.5 C 43.4154,75.5869 41.7488,76.9202 39.5,77.5C 40.5846,75.4131 42.2512,74.0798 44.5,73.5 Z"/></g>
<g><path style="opacity:1" fill="#f15838" d="M 47.5,72.5 C 49.5824,72.472 51.4157,73.1387 53,74.5C 52.2817,81.8095 51.4483,89.1429 50.5,96.5C 51.767,98.3171 53.1003,99.9837 54.5,101.5C 50.9186,102.26 47.2519,102.76 43.5,103C 44.7383,103.69 44.7383,104.19 43.5,104.5C 41.8333,104.5 40.1667,104.5 38.5,104.5C 38.7007,100.65 40.5341,99.65 44,101.5C 44.49,100.207 44.6567,98.8734 44.5,97.5C 43.8714,92.9074 41.7047,89.2407 38,86.5C 36.1141,89.9194 34.2807,90.086 32.5,87C 34.2902,85.2661 36.2902,83.7661 38.5,82.5C 39.2508,83.376 39.7508,84.376 40,85.5C 41.1667,83.6667 42.6667,82.1667 44.5,81C 42.1893,81.1554 39.856,81.1554 37.5,81C 38.8228,80.1841 39.4894,79.0174 39.5,77.5C 41.7488,76.9202 43.4154,75.5869 44.5,73.5C 45.609,73.4431 46.609,73.1098 47.5,72.5 Z"/></g>
<g><path style="opacity:1" fill="#f26039" d="M 54.5,101.5 C 53.1003,99.9837 51.767,98.3171 50.5,96.5C 51.4483,89.1429 52.2817,81.8095 53,74.5C 51.4157,73.1387 49.5824,72.472 47.5,72.5C 48.6715,71.6554 50.0048,70.9887 51.5,70.5C 52.8195,69.0582 54.4862,68.3915 56.5,68.5C 56.2267,70.451 56.8934,71.951 58.5,73C 57.572,73.3879 56.9054,74.0546 56.5,75C 57.8333,76.3333 57.8333,77.6667 56.5,79C 57.2595,84.1283 57.7595,89.295 58,94.5C 58.6924,95.0253 59.1924,95.6919 59.5,96.5C 57.9937,98.4014 56.3271,100.068 54.5,101.5 Z"/></g>
<g><path style="opacity:0.643" fill="#efc89b" d="M 121.5,82.5 C 121.5,80.8333 121.5,79.1667 121.5,77.5C 120.167,77.5 118.833,77.5 117.5,77.5C 118.765,76.5207 120.099,75.5207 121.5,74.5C 122.8,77.3092 122.8,79.9759 121.5,82.5 Z"/></g>
<g><path style="opacity:1" fill="#f2aa5a" d="M 117.5,77.5 C 118.833,77.5 120.167,77.5 121.5,77.5C 121.5,79.1667 121.5,80.8333 121.5,82.5C 120.796,87.2897 119.129,91.623 116.5,95.5C 116.401,92.3273 117.068,89.3273 118.5,86.5C 117.936,84.1807 117.436,81.8474 117,79.5C 115.625,82.6098 113.458,83.6098 110.5,82.5C 109.378,83.6302 108.044,84.2969 106.5,84.5C 106.833,83.8333 107.167,83.1667 107.5,82.5C 110.795,80.8527 114.128,79.1861 117.5,77.5 Z"/></g>
<g><path style="opacity:1" fill="#f2673b" d="M 58.5,63.5 C 59.1667,63.5 59.8333,63.5 60.5,63.5C 61.5,63.5 62.5,63.5 63.5,63.5C 63.6025,66.2186 63.2692,68.8853 62.5,71.5C 65.0808,74.0974 65.0808,76.5974 62.5,79C 64.0406,81.0403 65.3739,83.2069 66.5,85.5C 69.0237,86.5923 71.357,87.9257 73.5,89.5C 73.1667,90.5 72.5,91.1667 71.5,91.5C 69.1799,89.7739 66.5133,89.1072 63.5,89.5C 63.2322,91.099 63.5655,92.4324 64.5,93.5C 64.6068,95.3786 64.1068,95.7119 63,94.5C 60.9524,96.506 61.4524,97.506 64.5,97.5C 64.756,99.9124 63.756,101.579 61.5,102.5C 63.756,103.421 64.756,105.088 64.5,107.5C 63.1667,107.5 61.8333,107.5 60.5,107.5C 60.5,108.5 60.5,109.5 60.5,110.5C 56.8721,108.847 53.5388,106.847 50.5,104.5C 48.2986,105.566 45.9653,106.233 43.5,106.5C 43.5,105.833 43.5,105.167 43.5,104.5C 44.7383,104.19 44.7383,103.69 43.5,103C 47.2519,102.76 50.9186,102.26 54.5,101.5C 56.3271,100.068 57.9937,98.4014 59.5,96.5C 59.1924,95.6919 58.6924,95.0253 58,94.5C 57.7595,89.295 57.2595,84.1283 56.5,79C 57.8333,77.6667 57.8333,76.3333 56.5,75C 56.9054,74.0546 57.572,73.3879 58.5,73C 56.8934,71.951 56.2267,70.451 56.5,68.5C 54.4862,68.3915 52.8195,69.0582 51.5,70.5C 51.5569,69.391 51.8902,68.391 52.5,67.5C 54.1475,65.6736 56.1475,64.3403 58.5,63.5 Z"/></g>
<g><path style="opacity:1" fill="#f29d68" d="M 97.5,79.5 C 92.4984,83.0031 87.165,86.0031 81.5,88.5C 82.2341,87.2921 82.5674,85.9587 82.5,84.5C 83.5,84.5 84.5,84.5 85.5,84.5C 85.5,83.5 85.5,82.5 85.5,81.5C 86.8333,81.8333 88.1667,82.1667 89.5,82.5C 91.0481,82.1788 91.7148,81.1788 91.5,79.5C 93.5,79.5 95.5,79.5 97.5,79.5 Z"/></g>
<g><path style="opacity:1" fill="#edb485" d="M 107.5,82.5 C 107.167,83.1667 106.833,83.8333 106.5,84.5C 104.421,84.9707 102.421,85.6373 100.5,86.5C 96.6033,87.9099 92.6033,88.9099 88.5,89.5C 94.6814,86.9924 101.015,84.659 107.5,82.5 Z"/></g>
<g><path style="opacity:1" fill="#f89b3d" d="M 116.5,95.5 C 114.685,96.6298 112.685,97.2964 110.5,97.5C 110.84,99.5476 110.507,100.548 109.5,100.5C 108.737,99.7321 107.737,99.2321 106.5,99C 108.019,97.6487 109.352,96.1487 110.5,94.5C 107.658,93.9955 106.325,92.3289 106.5,89.5C 107.5,89.5 108.5,89.5 109.5,89.5C 109.5,88.5 109.5,87.5 109.5,86.5C 107.821,86.7148 106.821,86.0481 106.5,84.5C 108.044,84.2969 109.378,83.6302 110.5,82.5C 113.458,83.6098 115.625,82.6098 117,79.5C 117.436,81.8474 117.936,84.1807 118.5,86.5C 117.068,89.3273 116.401,92.3273 116.5,95.5 Z"/></g>
<g><path style="opacity:1" fill="#f69340" d="M 106.5,84.5 C 106.821,86.0481 107.821,86.7148 109.5,86.5C 109.5,87.5 109.5,88.5 109.5,89.5C 108.5,89.5 107.5,89.5 106.5,89.5C 106.325,92.3289 107.658,93.9955 110.5,94.5C 109.352,96.1487 108.019,97.6487 106.5,99C 107.737,99.2321 108.737,99.7321 109.5,100.5C 108.549,101.919 108.216,103.585 108.5,105.5C 107.564,106.974 106.23,107.974 104.5,108.5C 103.167,108.5 101.833,108.5 100.5,108.5C 100.096,107.244 99.4295,106.077 98.5,105C 101.242,102.386 100.909,100.219 97.5,98.5C 98.8333,97.8333 100.167,97.1667 101.5,96.5C 100.353,94.4154 101.02,92.9154 103.5,92C 102.167,91 100.833,90 99.5,89C 100.252,88.3292 100.586,87.4959 100.5,86.5C 102.421,85.6373 104.421,84.9707 106.5,84.5 Z"/></g>
<g><path style="opacity:1" fill="#e9604d" d="M 39.5,77.5 C 39.4894,79.0174 38.8228,80.1841 37.5,81C 39.856,81.1554 42.1893,81.1554 44.5,81C 42.6667,82.1667 41.1667,83.6667 40,85.5C 39.7508,84.376 39.2508,83.376 38.5,82.5C 36.2902,83.7661 34.2902,85.2661 32.5,87C 34.2807,90.086 36.1141,89.9194 38,86.5C 41.7047,89.2407 43.8714,92.9074 44.5,97.5C 44.1667,97.5 43.8333,97.5 43.5,97.5C 42.0106,95.1949 40.5106,92.8616 39,90.5C 36.932,92.3962 35.0987,94.3962 33.5,96.5C 32.8333,96.8333 32.1667,97.1667 31.5,97.5C 31.8134,94.7531 31.48,92.0865 30.5,89.5C 29.3892,91.5522 27.7225,92.8855 25.5,93.5C 29.0549,87.2729 33.7216,81.9396 39.5,77.5 Z"/></g>
<g><path style="opacity:0.627" fill="#f6b68c" d="M 79.5,89.5 C 82.3273,90.3683 85.3273,90.3683 88.5,89.5C 88.5,89.8333 88.5,90.1667 88.5,90.5C 88.1667,90.5 87.8333,90.5 87.5,90.5C 83.1783,91.4156 78.8449,91.9156 74.5,92C 76.1932,91.1534 77.8599,90.3201 79.5,89.5 Z"/></g>
<g><path style="opacity:1" fill="#f5893d" d="M 100.5,86.5 C 100.586,87.4959 100.252,88.3292 99.5,89C 100.833,90 102.167,91 103.5,92C 101.02,92.9154 100.353,94.4154 101.5,96.5C 100.167,97.1667 98.8333,97.8333 97.5,98.5C 100.909,100.219 101.242,102.386 98.5,105C 99.4295,106.077 100.096,107.244 100.5,108.5C 99.7611,108.369 99.0944,108.536 98.5,109C 99.2524,109.671 99.5858,110.504 99.5,111.5C 96.1933,112.051 92.8599,112.384 89.5,112.5C 89.383,107.044 89.383,101.377 89.5,95.5C 88.448,95.6495 87.448,95.4828 86.5,95C 88.725,94.1241 90.725,92.9574 92.5,91.5C 91.3112,90.5713 89.9778,90.238 88.5,90.5C 88.5,90.1667 88.5,89.8333 88.5,89.5C 92.6033,88.9099 96.6033,87.9099 100.5,86.5 Z"/></g>
<g><path style="opacity:1" fill="#f5793a" d="M 81.5,92.5 C 82.0577,93.7899 83.0577,94.6232 84.5,95C 84.1471,101.206 83.1471,107.206 81.5,113C 82.4158,113.278 83.0825,113.778 83.5,114.5C 81.5,114.5 79.5,114.5 77.5,114.5C 76.7222,113.844 76.0556,113.011 75.5,112C 76.8787,105.802 78.212,99.6353 79.5,93.5C 79.8417,92.6618 80.5084,92.3284 81.5,92.5 Z"/></g>
<g><path style="opacity:1" fill="#f5803b" d="M 87.5,90.5 C 87.8333,90.5 88.1667,90.5 88.5,90.5C 89.9778,90.238 91.3112,90.5713 92.5,91.5C 90.725,92.9574 88.725,94.1241 86.5,95C 87.448,95.4828 88.448,95.6495 89.5,95.5C 89.383,101.377 89.383,107.044 89.5,112.5C 87.8863,114.075 85.8863,114.741 83.5,114.5C 83.0825,113.778 82.4158,113.278 81.5,113C 83.1471,107.206 84.1471,101.206 84.5,95C 83.0577,94.6232 82.0577,93.7899 81.5,92.5C 84.0101,92.9465 86.0101,92.2798 87.5,90.5 Z"/></g>
<g><path style="opacity:1" fill="#f47239" d="M 71.5,91.5 C 73.6353,93.369 76.3019,94.0356 79.5,93.5C 78.212,99.6353 76.8787,105.802 75.5,112C 76.0556,113.011 76.7222,113.844 77.5,114.5C 75.5,114.5 73.5,114.5 71.5,114.5C 69.9358,108.323 69.1025,101.99 69,95.5C 67.951,93.8934 66.451,93.2267 64.5,93.5C 63.5655,92.4324 63.2322,91.099 63.5,89.5C 66.5133,89.1072 69.1799,89.7739 71.5,91.5 Z"/></g>
<g><path style="opacity:1" fill="#f26f3d" d="M 64.5,93.5 C 66.451,93.2267 67.951,93.8934 69,95.5C 69.1025,101.99 69.9358,108.323 71.5,114.5C 70.1667,114.5 68.8333,114.5 67.5,114.5C 65.901,114.768 64.5676,114.434 63.5,113.5C 63.1898,111.856 62.1898,110.856 60.5,110.5C 60.5,109.5 60.5,108.5 60.5,107.5C 61.8333,107.5 63.1667,107.5 64.5,107.5C 64.756,105.088 63.756,103.421 61.5,102.5C 63.756,101.579 64.756,99.9124 64.5,97.5C 61.4524,97.506 60.9524,96.506 63,94.5C 64.1068,95.7119 64.6068,95.3786 64.5,93.5 Z"/></g>
<g><path style="opacity:1" fill="#e27d6c" d="M 25.5,93.5 C 24.3797,97.5282 24.3797,101.528 25.5,105.5C 24.8826,105.389 24.3826,105.056 24,104.5C 23.8333,103 23.6667,101.5 23.5,100C 23.336,97.4563 24.0027,95.2897 25.5,93.5 Z"/></g>
<g><path style="opacity:1" fill="#f0ae6e" d="M 116.5,95.5 C 114.183,99.1464 111.516,102.48 108.5,105.5C 108.216,103.585 108.549,101.919 109.5,100.5C 110.507,100.548 110.84,99.5476 110.5,97.5C 112.685,97.2964 114.685,96.6298 116.5,95.5 Z"/></g>
<g><path style="opacity:0.984" fill="#e57e71" d="M 33.5,96.5 C 33.5,97.5 33.5,98.5 33.5,99.5C 36.5394,98.99 39.5394,98.3234 42.5,97.5C 40.5789,99.4192 38.0789,100.419 35,100.5C 32.7253,100.722 31.5587,99.7224 31.5,97.5C 32.1667,97.1667 32.8333,96.8333 33.5,96.5 Z"/></g>
<g><path style="opacity:1" fill="#ed4c39" d="M 31.5,97.5 C 31.5587,99.7224 32.7253,100.722 35,100.5C 38.0789,100.419 40.5789,99.4192 42.5,97.5C 42.8333,97.5 43.1667,97.5 43.5,97.5C 43.8333,97.5 44.1667,97.5 44.5,97.5C 44.6567,98.8734 44.49,100.207 44,101.5C 40.5341,99.65 38.7007,100.65 38.5,104.5C 40.1667,104.5 41.8333,104.5 43.5,104.5C 43.5,105.167 43.5,105.833 43.5,106.5C 37.4406,106.746 31.4406,106.413 25.5,105.5C 24.3797,101.528 24.3797,97.5282 25.5,93.5C 27.7225,92.8855 29.3892,91.5522 30.5,89.5C 31.48,92.0865 31.8134,94.7531 31.5,97.5 Z"/></g>
<g><path style="opacity:1" fill="#ea8573" d="M 25.5,105.5 C 31.4406,106.413 37.4406,106.746 43.5,106.5C 38.7746,108.401 33.7746,108.901 28.5,108C 27.0577,107.623 26.0577,106.79 25.5,105.5 Z"/></g>
<g><path style="opacity:1" fill="#f3b379" d="M 100.5,108.5 C 101.833,108.5 103.167,108.5 104.5,108.5C 103.341,110.25 101.674,111.25 99.5,111.5C 99.5858,110.504 99.2524,109.671 98.5,109C 99.0944,108.536 99.7611,108.369 100.5,108.5 Z"/></g>
<g><path style="opacity:1" fill="#e78770" d="M 50.5,104.5 C 53.5388,106.847 56.8721,108.847 60.5,110.5C 62.1898,110.856 63.1898,111.856 63.5,113.5C 57.9376,112.223 53.6043,109.223 50.5,104.5 Z"/></g>
<g><path style="opacity:1" fill="#eb9566" d="M 99.5,111.5 C 95.9516,113.899 91.9516,115.399 87.5,116C 82.1667,116.667 76.8333,116.667 71.5,116C 69.9419,115.79 68.6085,115.29 67.5,114.5C 68.8333,114.5 70.1667,114.5 71.5,114.5C 73.5,114.5 75.5,114.5 77.5,114.5C 79.5,114.5 81.5,114.5 83.5,114.5C 85.8863,114.741 87.8863,114.075 89.5,112.5C 92.8599,112.384 96.1933,112.051 99.5,111.5 Z"/></g>
</svg>
